# xmcd
#
# Track frame offsets: 
#        150
#        25428
#        46164
#        65546
#        82571
#        99299
#        113059
#        138891
#        156248
#        175708
#        190640
#        210364
#
# Disc length: 3052 seconds
#
# Revision: 0
# Processed by: cddbd v1.5.2PL0 Copyright (c) Steve Scherf et al.
# Submitted via: ExactAudioCopy v1.3
#
DISCID=880bea0c
DTITLE=Anthony Gomes - Peace, Love and Loud Guitars
DYEAR=2018
DGENRE=Blues Rock
TTITLE0=Take Me Back Home
TTITLE1=Come Down
TTITLE2=White Trash Princess
TTITLE3=Blues in the First Degree
TTITLE4=Nasty Good
TTITLE5=The Whiskey Made Me Do It
TTITLE6=You Are Amazing
TTITLE7=Peace, Love and Loud Guitars
TTITLE8=Stealin' from the Devil
TTITLE9=Your Mama Wants to Do Me (And Your Daddy Wants to Do Me In)
TTITLE10=The Only Woman I've Ever Loved
TTITLE11=Hard Road Easy
EXTD=
EXTT0=
EXTT1=
EXTT2=
EXTT3=
EXTT4=
EXTT5=
EXTT6=
EXTT7=
EXTT8=
EXTT9=
EXTT10=
EXTT11=
PLAYORDER=
